<svg xmlns="http://www.w3.org/2000/svg" viewBox="0 0 100 100" width="100" height="100">
  <!-- Clock asset -->
  
  <!-- Clock face -->
  <circle cx="50" cy="50" r="45" fill="#F5F5F5" stroke="#333333" stroke-width="2"/>
  <circle cx="50" cy="50" r="40" fill="#FFFFFF" stroke="#CCCCCC" stroke-width="1"/>
  
  <!-- Clock markings -->
  <line x1="50" y1="15" x2="50" y2="20" stroke="#333333" stroke-width="2"/>
  <line x1="50" y1="80" x2="50" y2="85" stroke="#333333" stroke-width="2"/>
  <line x1="15" y1="50" x2="20" y2="50" stroke="#333333" stroke-width="2"/>
  <line x1="80" y1="50" x2="85" y2="50" stroke="#333333" stroke-width="2"/>
  
  <!-- Hour markings -->
  <line x1="26" y1="26" x2="30" y2="30" stroke="#333333" stroke-width="1.5"/>
  <line x1="26" y1="74" x2="30" y2="70" stroke="#333333" stroke-width="1.5"/>
  <line x1="74" y1="26" x2="70" y2="30" stroke="#333333" stroke-width="1.5"/>
  <line x1="74" y1="74" x2="70" y2="70" stroke="#333333" stroke-width="1.5"/>
  
  <!-- Minute markings -->
  <g stroke="#999999" stroke-width="1">
    <line x1="50" y1="15" x2="50" y2="25" transform="rotate(30 50 50)"/>
    <line x1="50" y1="15" x2="50" y2="25" transform="rotate(60 50 50)"/>
    <line x1="50" y1="15" x2="50" y2="25" transform="rotate(120 50 50)"/>
    <line x1="50" y1="15" x2="50" y2="25" transform="rotate(150 50 50)"/>
    <line x1="50" y1="15" x2="50" y2="25" transform="rotate(210 50 50)"/>
    <line x1="50" y1="15" x2="50" y2="25" transform="rotate(240 50 50)"/>
    <line x1="50" y1="15" x2="50" y2="25" transform="rotate(300 50 50)"/>
    <line x1="50" y1="15" x2="50" y2="25" transform="rotate(330 50 50)"/>
  </g>
  
  <!-- Clock hands -->
  <line x1="50" y1="50" x2="50" y2="25" stroke="#333333" stroke-width="2" stroke-linecap="round"/>
  <line x1="50" y1="50" x2="35" y2="50" stroke="#333333" stroke-width="2" stroke-linecap="round"/>
  
  <!-- Center pin -->
  <circle cx="50" cy="50" r="3" fill="#CC0000"/>
  
  <!-- Top winder -->
  <circle cx="50" cy="10" r="3" fill="#333333"/>
  <rect x="48" y="5" width="4" height="5" fill="#333333"/>
</svg>