<svg xmlns="http://www.w3.org/2000/svg" viewBox="0 0 800 600" width="800" height="600">
  
  <rect width="800" height="600" fill="#0a0e2a"/>
  
  
  <g fill="#ffffff">
    
    <circle cx="50" cy="50" r="1"/>
    <circle cx="150" cy="80" r="1"/>
    <circle cx="250" cy="30" r="1"/>
    <circle cx="350" cy="90" r="1"/>
    <circle cx="450" cy="40" r="1"/>
    <circle cx="550" cy="70" r="1"/>
    <circle cx="650" cy="20" r="1"/>
    <circle cx="750" cy="60" r="1"/>
    
    <circle cx="100" cy="150" r="1"/>
    <circle cx="200" cy="180" r="1"/>
    <circle cx="300" cy="130" r="1"/>
    <circle cx="400" cy="190" r="1"/>
    <circle cx="500" cy="140" r="1"/>
    <circle cx="600" cy="170" r="1"/>
    <circle cx="700" cy="120" r="1"/>
    
    <circle cx="50" cy="250" r="1"/>
    <circle cx="150" cy="280" r="1"/>
    <circle cx="250" cy="230" r="1"/>
    <circle cx="350" cy="290" r="1"/>
    <circle cx="450" cy="240" r="1"/>
    <circle cx="550" cy="270" r="1"/>
    <circle cx="650" cy="220" r="1"/>
    <circle cx="750" cy="260" r="1"/>
    
    <circle cx="100" cy="350" r="1"/>
    <circle cx="200" cy="380" r="1"/>
    <circle cx="300" cy="330" r="1"/>
    <circle cx="400" cy="390" r="1"/>
    <circle cx="500" cy="340" r="1"/>
    <circle cx="600" cy="370" r="1"/>
    <circle cx="700" cy="320" r="1"/>
    
    <circle cx="50" cy="450" r="1"/>
    <circle cx="150" cy="480" r="1"/>
    <circle cx="250" cy="430" r="1"/>
    <circle cx="350" cy="490" r="1"/>
    <circle cx="450" cy="440" r="1"/>
    <circle cx="550" cy="470" r="1"/>
    <circle cx="650" cy="420" r="1"/>
    <circle cx="750" cy="460" r="1"/>
    
    <circle cx="100" cy="550" r="1"/>
    <circle cx="200" cy="580" r="1"/>
    <circle cx="300" cy="530" r="1"/>
    <circle cx="400" cy="590" r="1"/>
    <circle cx="500" cy="540" r="1"/>
    <circle cx="600" cy="570" r="1"/>
    <circle cx="700" cy="520" r="1"/>
    
    
    <circle cx="75" cy="125" r="2"/>
    <circle cx="175" cy="225" r="2"/>
    <circle cx="275" cy="325" r="2"/>
    <circle cx="375" cy="425" r="2"/>
    <circle cx="475" cy="525" r="2"/>
    <circle cx="575" cy="125" r="2"/>
    <circle cx="675" cy="225" r="2"/>
    <circle cx="775" cy="325" r="2"/>
    
    
    <circle cx="125" cy="75" r="3"/>
    <circle cx="325" cy="175" r="3"/>
    <circle cx="525" cy="375" r="3"/>
    <circle cx="725" cy="475" r="3"/>
  </g>
  
  
  <ellipse cx="200" cy="150" rx="100" ry="70" fill="#4a2b7e" opacity="0.3"/>
  <ellipse cx="600" cy="450" rx="120" ry="80" fill="#2b4a7e" opacity="0.3"/>
</svg>
