<?xml version="1.0" encoding="UTF-8"?>
<svg width="200" height="60" viewBox="0 0 200 60" xmlns="http://www.w3.org/2000/svg">
  
  <rect x="2" y="2" width="196" height="56" rx="10" ry="10" 
        fill="#4CAF50" stroke="#2E7D32" stroke-width="2"/>
  
  
  <path d="M12 4 L188 4 Q196 4 196 12 L196 12 Q196 8 188 8 L12 8 Q4 8 4 12 L4 12 Q4 4 12 4 Z" 
        fill="#81C784" fill-opacity="0.6"/>
  
  
  <path d="M12 56 L188 56 Q196 56 196 48 L196 48 Q196 52 188 52 L12 52 Q4 52 4 48 L4 48 Q4 56 12 56 Z" 
        fill="#1B5E20" fill-opacity="0.4"/>
</svg>
