<svg xmlns="http://www.w3.org/2000/svg" viewBox="0 0 500 300" width="500" height="300">
  
  
  
  <rect x="0" y="0" width="500" height="300" rx="10" ry="10" fill="#8B4513"/>
  <rect x="20" y="20" width="460" height="260" rx="5" ry="5" fill="#2F4F4F"/>
  
  
  <rect x="25" y="25" width="450" height="250" fill="#2F4F4F"/>
  
  
  <g fill="#FFFFFF" opacity="0.1">
    <rect x="50" y="50" width="100" height="2"/>
    <rect x="200" y="80" width="150" height="1"/>
    <rect x="100" y="120" width="200" height="1"/>
    <rect x="150" y="180" width="180" height="2"/>
    <rect x="80" y="220" width="120" height="1"/>
    
    
    <circle cx="70" cy="40" r="1"/>
    <circle cx="120" cy="60" r="1"/>
    <circle cx="250" cy="70" r="1"/>
    <circle cx="350" cy="90" r="1"/>
    <circle cx="400" cy="150" r="1"/>
    <circle cx="300" cy="200" r="1"/>
    <circle cx="150" cy="230" r="1"/>
    <circle cx="420" cy="240" r="1"/>
  </g>
  
  
  <rect x="150" y="280" width="200" height="10" fill="#8B4513"/>
  <rect x="155" y="275" width="190" height="5" fill="#A0522D"/>
  
  
  <rect x="180" y="277" width="15" height="3" fill="#FFFFFF" opacity="0.8"/>
  <rect x="220" y="277" width="10" height="3" fill="#FFFFFF" opacity="0.8"/>
  <rect x="260" y="277" width="12" height="3" fill="#FFFFFF" opacity="0.8"/>
  <rect x="300" y="277" width="8" height="3" fill="#FFFFFF" opacity="0.8"/>
</svg>
