<svg xmlns="http://www.w3.org/2000/svg" viewBox="0 0 100 150" width="100" height="150">
  
  
  
  <circle cx="50" cy="40" r="30" fill="#FFD700"/>
  <circle cx="40" cy="30" r="5" fill="#FFFFFF"/>
  <circle cx="40" cy="30" r="2" fill="#000000"/>
  <circle cx="60" cy="30" r="5" fill="#FFFFFF"/>
  <circle cx="60" cy="30" r="2" fill="#000000"/>
  
  
  <path d="M35,50 Q50,60 65,50" fill="none" stroke="#000000" stroke-width="2" stroke-linecap="round"/>
  
  
  <rect x="35" y="70" width="30" height="50" rx="5" ry="5" fill="#4169E1"/>
  
  
  <rect x="15" y="75" width="20" height="10" rx="5" ry="5" fill="#4169E1"/>
  <rect x="65" y="75" width="20" height="10" rx="5" ry="5" fill="#4169E1"/>
  
  
  <circle cx="15" cy="80" r="5" fill="#FFD700"/>
  <circle cx="85" cy="80" r="5" fill="#FFD700"/>
  
  
  <rect x="40" y="120" width="8" height="25" rx="4" ry="4" fill="#000080"/>
  <rect x="52" y="120" width="8" height="25" rx="4" ry="4" fill="#000080"/>
  
  
  <ellipse cx="44" cy="145" rx="6" ry="3" fill="#000000"/>
  <ellipse cx="56" cy="145" rx="6" ry="3" fill="#000000"/>
</svg>
